# This file uses centimeters as units for non-parametric coordinates.

g default
v -0.911688 2.897089 1.056712
v -1.699214 11.163176 5.162166
v -1.885281 13.715401 7.087875
v -1.348822 11.647692 5.669943
v 0.159418 3.438446 1.729021
v -1.317492 7.315477 2.928152
v -0.522618 7.855637 3.572575
v 0.369447 -0.148012 0.540633
v -0.661650 -0.095117 0.122111
v 0.010440 -0.534394 -0.106469
v -0.257633 3.301085 1.117767
v -0.810518 7.794026 3.006847
v -1.495008 11.625302 5.372372
vt 0.165174 0.263170
vt 0.164719 0.025890
vt 0.205744 0.242867
vt 0.202825 0.057109
vt 0.168592 0.550207
vt 0.202368 0.527012
vt 0.169330 0.974121
vt 0.169478 0.815046
vt 0.186444 0.788060
vt 0.152686 0.824716
vt 0.135071 0.566487
vt 0.124811 0.281354
vt 0.127138 0.057738
vn 0.356398 0.352894 -0.865128
vn 0.206656 0.307754 -0.928752
vn -0.125754 0.319076 -0.939349
vn -0.118190 0.332737 -0.935584
vn 0.328472 0.474361 -0.816754
vn -0.215483 0.398129 -0.891662
vn 0.218019 0.643179 -0.734023
vn 0.421410 0.569971 -0.705370
vn -0.318715 0.490506 -0.811064
vn 0.788506 0.448264 -0.421091
vn 0.809714 0.383201 -0.444433
vn 0.785209 0.298775 -0.542384
vn 0.779061 0.238650 -0.579750
s 1
g grass_1_8
f 11/1/1 10/2/2 1/3/3
f 1/3/3 10/2/2 9/4/4
f 12/5/5 11/1/1 6/6/6
f 6/6/6 11/1/1 1/3/3
f 3/7/7 13/8/8 2/9/9
f 13/8/8 12/5/5 2/9/9
f 2/9/9 12/5/5 6/6/6
f 13/8/8 3/7/7 4/10/10
f 12/5/5 13/8/8 7/11/11
f 7/11/11 13/8/8 4/10/10
f 11/1/1 12/5/5 5/12/12
f 5/12/12 12/5/5 7/11/11
f 10/2/2 11/1/1 8/13/13
f 8/13/13 11/1/1 5/12/12
