# This file uses centimeters as units for non-parametric coordinates.

g default
v -0.095674 2.116233 0.549120
v 0.794541 8.315985 1.879798
v 1.555717 10.355033 2.731135
v 1.384824 8.713152 1.892182
v 1.253241 2.549557 0.194310
v 0.180863 5.366908 1.015950
v 1.259482 5.806557 0.822022
v 1.138035 -0.019635 0.133618
v -0.086000 -0.019635 0.490815
v 0.434907 -0.379639 0.000000
v 0.487665 2.360874 0.059470
v 0.631712 5.670046 0.615851
v 1.058074 8.647617 1.777677
v -3.054222 0.964111 1.855384
v -3.650340 4.151659 4.741515
v -3.488681 5.101668 6.120913
v -3.094515 4.464169 5.075479
v -1.569176 1.558416 2.246413
v -3.490467 2.700823 3.154567
v -2.350191 3.193691 3.549441
v -1.219967 0.076203 1.450442
v -2.648700 -0.249348 1.227249
v -1.861095 -0.182326 1.009686
v -2.306611 1.390496 1.829827
v -2.925253 3.105279 3.153029
v -3.392329 4.424265 4.866179
v 1.699160 1.382940 1.267837
v 4.027180 5.427813 2.513809
v 5.303514 6.615713 2.966455
v 4.571201 5.641622 2.258494
v 2.721411 1.614754 0.354247
v 2.690844 3.575109 1.859343
v 3.556638 3.807784 1.203925
v 2.124723 -0.195885 0.049385
v 1.283445 -0.132683 0.952753
v 1.457294 -0.344178 0.283827
v 2.036745 1.596349 0.642608
v 2.965868 3.826250 1.375180
v 4.262284 5.656724 2.343246
v -0.202428 2.897089 2.994420
v -0.989954 11.163176 7.099874
v -1.176021 13.715401 9.025583
v -0.639562 11.647692 7.607651
v 0.868678 3.438446 3.666729
v -0.608232 7.315477 4.865860
v 0.186642 7.855637 5.510283
v 1.078707 -0.148012 2.478341
v 0.047610 -0.095117 2.059819
v 0.719700 -0.534394 1.831239
v 0.451627 3.301085 3.055475
v -0.101258 7.794026 4.944555
v -0.785748 11.625302 7.310080
v -1.401179 2.273036 -0.789317
v -2.556492 8.913818 1.657080
v -2.994209 11.019325 3.105387
v -2.301686 9.337202 2.105513
v -0.491176 2.776004 -0.135095
v -1.937875 5.796979 0.180968
v -1.285134 6.288067 0.788667
v -0.237160 -0.061398 -0.583916
v -1.129742 -0.087263 -1.099435
v -0.466307 -0.421152 -1.200242
v -0.769731 2.608111 -0.771903
v -1.446098 6.185968 0.191233
v -2.380826 9.291338 1.789412
vt 0.715246 0.063557
vt 0.763555 0.086854
vt 0.718108 0.245493
vt 0.768939 0.229988
vt 0.724833 0.466143
vt 0.766318 0.450546
vt 0.719647 0.808675
vt 0.725299 0.676495
vt 0.746290 0.657086
vt 0.704682 0.687032
vt 0.683746 0.482788
vt 0.667600 0.261865
vt 0.668260 0.089410
vt 0.355697 0.257527
vt 0.348886 0.077339
vt 0.438761 0.239584
vt 0.428150 0.097633
vt 0.370138 0.476361
vt 0.436140 0.460142
vt 0.359525 0.830907
vt 0.373068 0.691198
vt 0.406586 0.671549
vt 0.339741 0.704818
vt 0.304763 0.497856
vt 0.273168 0.278317
vt 0.272518 0.106721
vt 0.555407 0.250067
vt 0.550965 0.068724
vt 0.618847 0.233788
vt 0.611367 0.091036
vt 0.565215 0.470082
vt 0.616226 0.454346
vt 0.557480 0.817191
vt 0.566595 0.682184
vt 0.592466 0.662731
vt 0.540998 0.693782
vt 0.514644 0.488377
vt 0.492340 0.267890
vt 0.492506 0.095719
vt 0.165174 0.263170
vt 0.164719 0.025890
vt 0.205744 0.242867
vt 0.202825 0.057109
vt 0.168592 0.550207
vt 0.202368 0.527012
vt 0.169330 0.974121
vt 0.169478 0.815046
vt 0.186444 0.788060
vt 0.152686 0.824716
vt 0.135071 0.566487
vt 0.124811 0.281354
vt 0.127138 0.057738
vt 0.871467 0.242761
vt 0.870181 0.060900
vt 0.911173 0.228006
vt 0.907903 0.084881
vt 0.875153 0.463505
vt 0.908552 0.448564
vt 0.872711 0.803511
vt 0.874618 0.672594
vt 0.891419 0.653578
vt 0.858418 0.682773
vt 0.842230 0.479498
vt 0.832122 0.258336
vt 0.833170 0.085967
vn -0.277303 0.026180 -0.960426
vn -0.661123 0.023437 -0.749911
vn -0.353680 0.086934 -0.931318
vn -0.662119 0.089650 -0.744017
vn -0.288456 0.285491 -0.913941
vn -0.711743 0.212409 -0.669556
vn -0.321151 0.531358 -0.783914
vn -0.172526 0.440132 -0.881203
vn -0.734199 0.383621 -0.560166
vn 0.238563 0.375421 -0.895626
vn 0.252548 0.277709 -0.926875
vn 0.192155 0.119217 -0.974096
vn 0.173745 0.016798 -0.984647
vn 0.001020 0.538242 -0.842789
vn -0.066406 0.441649 -0.894727
vn -0.284274 0.425390 -0.859204
vn -0.284848 0.448670 -0.847087
vn -0.064066 0.701761 -0.709526
vn -0.378580 0.549533 -0.744776
vn -0.188243 0.858104 -0.477726
vn -0.049370 0.829052 -0.556987
vn -0.472910 0.677402 -0.563456
vn 0.236037 0.836066 -0.495258
vn 0.289310 0.762576 -0.578600
vn 0.313201 0.614227 -0.724313
vn 0.336530 0.507255 -0.793372
vn -0.664074 0.396858 -0.633648
vn -0.760696 0.325930 -0.561348
vn -0.869702 0.367399 -0.329600
vn -0.859654 0.388747 -0.331469
vn -0.591683 0.573370 -0.566707
vn -0.831233 0.506681 -0.228749
vn -0.482067 0.781192 -0.396675
vn -0.447720 0.702261 -0.553513
vn -0.744887 0.660187 -0.096423
vn -0.180726 0.614197 -0.768180
vn -0.215134 0.523441 -0.824456
vn -0.328234 0.377128 -0.866047
vn -0.376008 0.274484 -0.885029
vn 0.356399 0.352894 -0.865128
vn 0.206656 0.307754 -0.928752
vn -0.125755 0.319076 -0.939349
vn -0.118190 0.332737 -0.935584
vn 0.328472 0.474361 -0.816754
vn -0.215483 0.398129 -0.891662
vn 0.218019 0.643179 -0.734023
vn 0.421410 0.569971 -0.705370
vn -0.318715 0.490506 -0.811064
vn 0.788506 0.448264 -0.421091
vn 0.809714 0.383201 -0.444433
vn 0.785209 0.298775 -0.542384
vn 0.779061 0.238650 -0.579750
vn 0.469644 0.240287 -0.849527
vn 0.298472 0.158567 -0.941154
vn -0.080249 0.168362 -0.982453
vn -0.072662 0.187837 -0.979509
vn 0.423530 0.419179 -0.803064
vn -0.180197 0.282859 -0.942083
vn 0.280811 0.642594 -0.712894
vn 0.503702 0.563708 -0.654613
vn -0.288502 0.413195 -0.863734
vn 0.845224 0.456505 -0.277848
vn 0.882086 0.369839 -0.291795
vn 0.888756 0.238457 -0.391474
vn 0.893280 0.148330 -0.424322
s 1
g grass_small
f 11/3/1 10/1/2 1/4/3
f 1/4/3 10/1/2 9/2/4
f 12/5/5 11/3/1 6/6/6
f 6/6/6 11/3/1 1/4/3
f 3/7/7 13/8/8 2/9/9
f 13/8/8 12/5/5 2/9/9
f 2/9/9 12/5/5 6/6/6
f 13/8/8 3/7/7 4/10/10
f 12/5/5 13/8/8 7/11/11
f 7/11/11 13/8/8 4/10/10
f 11/3/1 12/5/5 5/12/12
f 5/12/12 12/5/5 7/11/11
f 10/1/2 11/3/1 8/13/13
f 8/13/13 11/3/1 5/12/12
s 4
f 24/14/14 23/15/15 14/16/16
f 14/16/16 23/15/15 22/17/17
f 25/18/18 24/14/14 19/19/19
f 19/19/19 24/14/14 14/16/16
f 16/20/20 26/21/21 15/22/22
f 26/21/21 25/18/18 15/22/22
f 15/22/22 25/18/18 19/19/19
f 26/21/21 16/20/20 17/23/23
f 25/18/18 26/21/21 20/24/24
f 20/24/24 26/21/21 17/23/23
f 24/14/14 25/18/18 18/25/25
f 18/25/25 25/18/18 20/24/24
f 23/15/15 24/14/14 21/26/26
f 21/26/26 24/14/14 18/25/25
s 7
f 37/27/27 36/28/28 27/29/29
f 27/29/29 36/28/28 35/30/30
f 38/31/31 37/27/27 32/32/32
f 32/32/32 37/27/27 27/29/29
f 29/33/33 39/34/34 28/35/35
f 39/34/34 38/31/31 28/35/35
f 28/35/35 38/31/31 32/32/32
f 39/34/34 29/33/33 30/36/36
f 38/31/31 39/34/34 33/37/37
f 33/37/37 39/34/34 30/36/36
f 37/27/27 38/31/31 31/38/38
f 31/38/38 38/31/31 33/37/37
f 36/28/28 37/27/27 34/39/39
f 34/39/39 37/27/27 31/38/38
s 10
f 50/40/40 49/41/41 40/42/42
f 40/42/42 49/41/41 48/43/43
f 51/44/44 50/40/40 45/45/45
f 45/45/45 50/40/40 40/42/42
f 42/46/46 52/47/47 41/48/48
f 52/47/47 51/44/44 41/48/48
f 41/48/48 51/44/44 45/45/45
f 52/47/47 42/46/46 43/49/49
f 51/44/44 52/47/47 46/50/50
f 46/50/50 52/47/47 43/49/49
f 50/40/40 51/44/44 44/51/51
f 44/51/51 51/44/44 46/50/50
f 49/41/41 50/40/40 47/52/52
f 47/52/52 50/40/40 44/51/51
s 13
f 63/53/53 62/54/54 53/55/55
f 53/55/55 62/54/54 61/56/56
f 64/57/57 63/53/53 58/58/58
f 58/58/58 63/53/53 53/55/55
f 55/59/59 65/60/60 54/61/61
f 65/60/60 64/57/57 54/61/61
f 54/61/61 64/57/57 58/58/58
f 65/60/60 55/59/59 56/62/62
f 64/57/57 65/60/60 59/63/63
f 59/63/63 65/60/60 56/62/62
f 63/53/53 64/57/57 57/64/64
f 57/64/64 64/57/57 59/63/63
f 62/54/54 63/53/53 60/65/65
f 60/65/65 63/53/53 57/64/64
